<svg version="1.1" id="Layer_1" xmlns="http://www.w3.org/2000/svg" xmlns:xlink="http://www.w3.org/1999/xlink" x="0px" y="0px"
	 width="100%" viewBox="0 0 192 192" enable-background="new 0 0 192 192" xml:space="preserve">
<path fill="#000000" opacity="1.000000" stroke="none" 
	d="
M26.531334,1.000000 
	C26.633039,1.325736 26.306875,1.867874 25.893206,1.945861 
	C12.128201,4.540913 4.732437,13.420170 1.282346,26.750109 
	C1.000000,18.406929 1.000000,9.813859 1.000000,1.000000 
	C9.352930,1.000000 17.707798,1.000000 26.531334,1.000000 
z"/>
<path fill="#000000" opacity="1.000000" stroke="none" 
	d="
M193.000000,10.513435 
	C188.107574,6.121318 182.166214,3.178880 175.261505,1.265985 
	C180.896774,1.000000 186.793533,1.000000 193.000000,1.000000 
	C193.000000,4.002185 193.000000,7.014528 193.000000,10.513435 
z"/>
<path fill="#000000" opacity="1.000000" stroke="none" 
	d="
M1.000000,175.469711 
	C3.150399,181.194321 5.534263,187.268356 9.959122,192.656036 
	C7.049746,193.000000 4.099492,193.000000 1.000000,193.000000 
	C1.000000,187.313736 1.000000,181.626572 1.000000,175.469711 
z"/>
<path fill="#000000" opacity="1.000000" stroke="none" 
	d="
M56.334267,124.071716 
	C56.340294,132.551193 56.283524,140.541870 56.371212,148.530960 
	C56.442730,155.046371 58.265537,156.794464 64.698318,156.904816 
	C67.693207,156.956192 70.704163,156.845169 73.678543,157.122238 
	C77.466499,157.475113 80.014389,159.656876 80.016304,163.540894 
	C80.018074,167.140549 77.747421,169.477982 74.108299,169.799072 
	C68.134186,170.326172 62.093765,170.551407 56.257351,168.913895 
	C48.769848,166.813156 43.853340,159.717453 43.719624,150.967682 
	C43.582291,141.980957 43.553253,132.988495 43.711330,124.002663 
	C43.831207,117.188515 41.327911,111.761589 36.207150,107.352982 
	C30.840416,102.732605 30.818651,99.247467 36.089664,94.714188 
	C41.202690,90.316795 43.741474,84.843727 43.685974,78.079941 
	C43.613579,69.258270 43.606754,60.434875 43.692699,51.613400 
	C43.806705,39.911957 50.850578,32.538078 62.483345,32.014267 
	C66.296585,31.842560 70.139107,31.988510 73.952026,32.237484 
	C77.610046,32.476345 79.996475,34.673153 80.021843,38.289009 
	C80.048592,42.104149 77.612389,44.448074 73.784973,44.814983 
	C70.812706,45.099915 67.801041,44.972004 64.806976,45.031971 
	C58.300144,45.162292 56.453560,46.880096 56.374592,53.338932 
	C56.270817,61.827080 56.152267,70.322693 56.393814,78.805031 
	C56.591404,85.743935 54.807426,92.008987 50.908745,97.614128 
	C49.221668,100.039635 49.120602,101.811882 50.852676,104.282982 
	C54.878765,110.026878 56.793430,116.499809 56.334267,124.071716 
z"/>
<path fill="#000000" opacity="1.000000" stroke="none" 
	d="
M155.846985,41.445122 
	C157.689758,45.136127 158.356628,48.674995 158.330246,52.412430 
	C158.269104,61.075336 158.422806,69.740646 158.288269,78.401863 
	C158.184967,85.052376 160.802475,90.312141 165.711456,94.600281 
	C171.004517,99.223923 171.072998,102.804565 165.840149,107.250893 
	C160.688934,111.627853 158.161041,117.063118 158.282639,123.883102 
	C158.437042,132.543716 158.383011,141.209763 158.304092,149.872421 
	C158.193420,162.020477 151.462860,169.209763 139.423645,169.921814 
	C135.612473,170.147232 131.758743,170.022614 127.946304,169.751404 
	C124.244362,169.488068 122.096077,167.034668 121.981995,163.518265 
	C121.863113,159.854065 124.175217,157.636307 127.845207,157.316452 
	C131.155731,157.027939 134.495422,157.085251 137.820877,156.954712 
	C143.631454,156.726593 145.521301,154.926453 145.610153,148.993378 
	C145.737381,140.498474 145.788559,131.997391 145.609451,123.504478 
	C145.456299,116.242302 147.270889,109.641998 151.550003,103.820801 
	C153.093628,101.720917 153.115158,100.235847 151.535675,98.121552 
	C147.318222,92.476051 145.474442,86.044312 145.612625,78.945450 
	C145.777969,70.451950 145.704025,61.952183 145.627319,53.456089 
	C145.568344,46.923267 143.778000,45.164246 137.329803,45.025284 
	C134.332504,44.960682 131.320999,45.140633 128.338348,44.914356 
	C124.471626,44.621017 122.068283,42.266567 121.982994,38.477688 
	C121.901009,34.835556 124.248062,32.480083 127.895065,32.286949 
	C138.214249,31.740480 148.888397,30.366447 155.846985,41.445122 
z"/>
<path fill="#000000" opacity="1.000000" stroke="none" 
	d="
M131.555450,116.520798 
	C128.823608,119.995323 124.115257,119.950012 121.793243,116.644951 
	C120.264893,114.469566 119.049278,112.077110 117.604980,109.839066 
	C116.630371,108.328835 115.687347,106.672150 113.338531,106.592529 
	C111.459236,108.940712 112.273598,111.703880 112.282219,114.223396 
	C112.293968,117.659866 110.818542,119.055313 107.477280,118.998596 
	C104.370522,118.945854 103.590843,117.283806 103.620728,114.489441 
	C103.715126,105.660950 103.715149,96.830322 103.629372,88.001701 
	C103.601822,85.165833 104.584419,83.960808 107.557785,83.499008 
	C112.275024,82.766350 116.878639,82.866318 121.415939,84.070854 
	C131.006042,86.616798 133.453110,96.299011 126.385345,103.327095 
	C125.930016,103.779861 125.515244,104.273407 125.050018,104.782570 
	C127.232178,108.663536 129.340408,112.412994 131.555450,116.520798 
M112.678047,97.719475 
	C115.194397,99.704247 117.673798,99.177681 119.857895,97.297630 
	C121.079460,96.246101 121.183998,94.547897 120.381119,93.142082 
	C119.208534,91.088898 117.051361,91.056473 115.068672,91.237305 
	C111.054352,91.603439 112.513000,94.691483 112.678047,97.719475 
z"/>
<path fill="#000000" opacity="1.000000" stroke="none" 
	d="
M78.529465,93.072540 
	C81.922165,93.152840 83.258339,90.331146 84.757164,88.226921 
	C88.231148,83.349777 92.709236,82.925552 98.514175,84.240540 
	C95.077614,90.306862 89.857513,94.484818 85.406456,99.613716 
	C90.570168,105.498726 96.148880,110.733688 99.311859,117.802391 
	C93.094490,120.230919 90.725861,119.570625 87.114098,114.920769 
	C85.077057,112.298248 82.837662,109.830780 80.639267,107.337685 
	C80.246559,106.892334 79.608421,106.663399 78.304123,105.846077 
	C78.304123,109.425705 78.253738,112.353592 78.317429,115.278992 
	C78.389893,118.607597 76.211563,118.981155 73.672203,118.990135 
	C71.103394,118.999207 69.631577,118.026344 69.652573,115.174500 
	C69.721176,105.855453 69.750145,96.535004 69.657364,87.216454 
	C69.622711,83.736816 71.779167,83.711800 74.278236,83.658775 
	C76.878258,83.603600 78.442719,84.374619 78.314400,87.304489 
	C78.234520,89.128418 78.375748,90.962029 78.529465,93.072540 
z"/>
</svg>