<svg version="1.1" id="Layer_1" xmlns="http://www.w3.org/2000/svg" xmlns:xlink="http://www.w3.org/1999/xlink" x="0px" y="0px"
	 width="100%" viewBox="0 0 200 200" enable-background="new 0 0 200 200" xml:space="preserve">
<path fill="#181A24" opacity="1.000000" stroke="none" 
	d="
M1.000002,178.000000 
	C1.000000,126.979103 1.000000,75.958206 1.327352,24.322727 
	C4.910987,11.486299 13.359312,4.602181 25.000000,1.000000 
	C75.354225,1.000000 125.708458,1.000000 176.690063,1.333318 
	C181.627563,3.677579 186.246765,5.219409 190.176117,7.808257 
	C196.229370,11.796443 198.567352,18.517553 201.000000,25.000000 
	C201.000000,75.687561 201.000000,126.375122 200.672760,177.677429 
	C197.083710,190.508438 188.616058,197.372635 177.000000,201.000000 
	C126.312439,201.000000 75.624878,201.000000 24.322384,200.672852 
	C16.002235,198.155655 9.658514,194.021866 5.481924,187.067688 
	C3.751796,184.186951 2.480155,181.030869 1.000002,178.000000 
M55.758156,83.908936 
	C55.841900,73.252823 55.887356,62.596218 56.025295,51.940811 
	C56.095833,46.492161 58.108269,44.430908 63.570030,44.209061 
	C67.062424,44.067204 70.566223,44.231564 74.062462,44.151646 
	C77.535271,44.072273 79.290962,41.853626 79.377083,38.725677 
	C79.469780,35.359154 77.737228,32.973957 74.018669,32.851986 
	C70.857132,32.748287 67.689682,32.821213 64.524849,32.822571 
	C51.141098,32.828320 44.302883,39.580406 44.169727,53.046871 
	C44.090675,61.041542 43.932842,69.045586 44.218643,77.030807 
	C44.495968,84.779121 41.893353,90.911179 35.809284,95.765396 
	C31.587353,99.133904 31.496664,102.802330 35.647484,106.093102 
	C41.909378,111.057533 44.411240,117.318779 44.248718,125.250412 
	C44.047817,135.055206 44.006500,144.921799 44.885094,154.672592 
	C45.653744,163.203217 52.793659,168.909073 61.306335,169.154037 
	C65.467163,169.273773 69.634468,169.196899 73.798546,169.166992 
	C77.526382,169.140213 79.392616,166.846985 79.389221,163.494095 
	C79.385834,160.139389 77.509941,157.862244 73.784073,157.832672 
	C70.286263,157.804901 66.781723,157.952637 63.291626,157.784622 
	C58.157005,157.537460 56.106945,155.418701 56.033424,150.281555 
	C55.938084,143.620041 55.753136,136.944016 56.067394,130.296021 
	C56.576344,119.529678 55.322094,109.362984 48.492004,102.067917 
	C51.098923,95.691292 53.332535,90.227783 55.758156,83.908936 
M124.884186,43.158249 
	C129.298660,43.499207 133.709122,43.910442 138.128632,44.163677 
	C143.897339,44.494221 145.917282,46.418434 145.974609,52.141571 
	C146.043045,58.972771 146.237335,65.816147 145.933685,72.634506 
	C145.468201,83.087334 146.937408,92.871521 154.433594,100.920799 
	C148.667801,107.857513 145.749008,115.381317 145.948822,124.119530 
	C146.143036,132.613281 146.030869,141.115219 145.977280,149.613052 
	C145.939133,155.661667 143.957626,157.644852 137.874451,157.806824 
	C134.710663,157.891052 131.542831,157.831268 128.376862,157.824768 
	C124.692978,157.817230 122.667389,159.901474 122.620850,163.322128 
	C122.571281,166.964859 124.576553,169.211777 128.530731,169.180862 
	C131.529907,169.157410 134.529419,169.181091 137.528778,169.178879 
	C150.873779,169.169037 157.706635,162.379974 157.830841,148.884430 
	C157.905975,140.720184 158.036682,132.548843 157.787964,124.391502 
	C157.562622,117.000816 160.171295,111.179550 165.868393,106.509140 
	C170.603760,102.627167 170.614838,99.396126 165.906937,95.526108 
	C160.225143,90.855499 157.667252,85.051819 157.769150,77.658295 
	C157.906723,67.677467 158.062668,57.640343 157.182098,47.718666 
	C156.375061,38.625526 149.184357,32.981495 140.077240,32.831882 
	C136.578934,32.774410 133.078278,32.780678 129.579742,32.831188 
	C123.013351,32.925999 120.980545,36.702164 124.884186,43.158249 
M128.399139,89.327286 
	C121.679665,81.169586 112.796509,84.413811 104.241753,84.102692 
	C104.241753,95.846321 104.241753,106.907875 104.241753,117.850449 
	C106.735405,117.850449 108.967979,117.850449 111.623245,117.850449 
	C111.623245,113.760086 111.623245,109.993111 111.623245,106.133255 
	C117.620255,105.077225 118.598694,110.020042 120.071907,113.103256 
	C122.605888,118.406502 126.130081,119.181961 131.667847,117.445862 
	C129.002594,112.939674 126.494255,108.698761 123.984474,104.455414 
	C130.071991,99.744095 130.923416,97.216545 128.399139,89.327286 
M77.849083,111.549652 
	C77.849083,109.338966 77.849083,107.128281 77.849083,104.917595 
	C81.652481,107.519157 84.368576,110.363220 86.814339,113.423347 
	C91.215744,118.930367 91.374718,119.063385 99.363007,117.333855 
	C94.359512,111.208893 89.576576,105.353928 84.741486,99.435104 
	C89.110420,94.659508 93.630127,89.719109 98.375580,84.531952 
	C92.393852,83.027344 88.191628,84.200775 84.987808,88.976425 
	C83.237862,91.584900 80.727745,93.683395 77.671326,96.967133 
	C77.671326,91.758041 77.671326,88.011200 77.671326,84.335144 
	C74.884117,84.335144 72.505783,84.335144 70.238037,84.335144 
	C70.238037,95.761520 70.238037,106.840012 70.238037,117.797638 
	C72.873940,117.797638 75.248184,117.797638 77.849083,117.797638 
	C77.849083,115.771935 77.849083,114.128876 77.849083,111.549652 
z"/>
<path fill="#F8F8F8" opacity="1.000000" stroke="none" 
	d="
M201.000000,24.531307 
	C198.567352,18.517553 196.229370,11.796443 190.176117,7.808257 
	C186.246765,5.219409 181.627563,3.677579 177.158722,1.333318 
	C184.926331,1.000000 192.852676,1.000000 201.000000,1.000000 
	C201.000000,8.686132 201.000000,16.374374 201.000000,24.531307 
z"/>
<path fill="#F8F8F9" opacity="1.000000" stroke="none" 
	d="
M24.531307,1.000000 
	C13.359312,4.602181 4.910987,11.486299 1.327352,23.854069 
	C1.000000,16.405445 1.000000,8.810891 1.000000,1.000000 
	C8.686191,1.000000 16.374403,1.000000 24.531307,1.000000 
z"/>
<path fill="#F8F8F9" opacity="1.000000" stroke="none" 
	d="
M177.468689,201.000000 
	C188.616058,197.372635 197.083710,190.508438 200.672760,178.146088 
	C201.000000,185.594559 201.000000,193.189102 201.000000,201.000000 
	C193.313812,201.000000 185.625595,201.000000 177.468689,201.000000 
z"/>
<path fill="#F9F9F9" opacity="1.000000" stroke="none" 
	d="
M1.000002,178.468735 
	C2.480155,181.030869 3.751796,184.186951 5.481924,187.067688 
	C9.658514,194.021866 16.002235,198.155655 23.853725,200.672852 
	C16.407045,201.000000 8.814093,201.000000 1.000000,201.000000 
	C1.000000,193.647293 1.000000,186.292389 1.000002,178.468735 
z"/>
<path fill="#FAFAFA" opacity="1.000000" stroke="none" 
	d="
M55.662151,84.336609 
	C53.332535,90.227783 51.098923,95.691292 48.492004,102.067917 
	C55.322094,109.362984 56.576344,119.529678 56.067394,130.296021 
	C55.753136,136.944016 55.938084,143.620041 56.033424,150.281555 
	C56.106945,155.418701 58.157005,157.537460 63.291626,157.784622 
	C66.781723,157.952637 70.286263,157.804901 73.784073,157.832672 
	C77.509941,157.862244 79.385834,160.139389 79.389221,163.494095 
	C79.392616,166.846985 77.526382,169.140213 73.798546,169.166992 
	C69.634468,169.196899 65.467163,169.273773 61.306335,169.154037 
	C52.793659,168.909073 45.653744,163.203217 44.885094,154.672592 
	C44.006500,144.921799 44.047817,135.055206 44.248718,125.250412 
	C44.411240,117.318779 41.909378,111.057533 35.647484,106.093102 
	C31.496664,102.802330 31.587353,99.133904 35.809284,95.765396 
	C41.893353,90.911179 44.495968,84.779121 44.218643,77.030807 
	C43.932842,69.045586 44.090675,61.041542 44.169727,53.046871 
	C44.302883,39.580406 51.141098,32.828320 64.524849,32.822571 
	C67.689682,32.821213 70.857132,32.748287 74.018669,32.851986 
	C77.737228,32.973957 79.469780,35.359154 79.377083,38.725677 
	C79.290962,41.853626 77.535271,44.072273 74.062462,44.151646 
	C70.566223,44.231564 67.062424,44.067204 63.570030,44.209061 
	C58.108269,44.430908 56.095833,46.492161 56.025295,51.940811 
	C55.887356,62.596218 55.841900,73.252823 55.662151,84.336609 
z"/>
<path fill="#FAFAFA" opacity="1.000000" stroke="none" 
	d="
M124.563553,42.917091 
	C120.980545,36.702164 123.013351,32.925999 129.579742,32.831188 
	C133.078278,32.780678 136.578934,32.774410 140.077240,32.831882 
	C149.184357,32.981495 156.375061,38.625526 157.182098,47.718666 
	C158.062668,57.640343 157.906723,67.677467 157.769150,77.658295 
	C157.667252,85.051819 160.225143,90.855499 165.906937,95.526108 
	C170.614838,99.396126 170.603760,102.627167 165.868393,106.509140 
	C160.171295,111.179550 157.562622,117.000816 157.787964,124.391502 
	C158.036682,132.548843 157.905975,140.720184 157.830841,148.884430 
	C157.706635,162.379974 150.873779,169.169037 137.528778,169.178879 
	C134.529419,169.181091 131.529907,169.157410 128.530731,169.180862 
	C124.576553,169.211777 122.571281,166.964859 122.620850,163.322128 
	C122.667389,159.901474 124.692978,157.817230 128.376862,157.824768 
	C131.542831,157.831268 134.710663,157.891052 137.874451,157.806824 
	C143.957626,157.644852 145.939133,155.661667 145.977280,149.613052 
	C146.030869,141.115219 146.143036,132.613281 145.948822,124.119530 
	C145.749008,115.381317 148.667801,107.857513 154.433594,100.920799 
	C146.937408,92.871521 145.468201,83.087334 145.933685,72.634506 
	C146.237335,65.816147 146.043045,58.972771 145.974609,52.141571 
	C145.917282,46.418434 143.897339,44.494221 138.128632,44.163677 
	C133.709122,43.910442 129.298660,43.499207 124.563553,42.917091 
z"/>
<path fill="#F8F8F8" opacity="1.000000" stroke="none" 
	d="
M128.612823,89.651436 
	C130.923416,97.216545 130.071991,99.744095 123.984474,104.455414 
	C126.494255,108.698761 129.002594,112.939674 131.667847,117.445862 
	C126.130081,119.181961 122.605888,118.406502 120.071907,113.103256 
	C118.598694,110.020042 117.620255,105.077225 111.623245,106.133255 
	C111.623245,109.993111 111.623245,113.760086 111.623245,117.850449 
	C108.967979,117.850449 106.735405,117.850449 104.241753,117.850449 
	C104.241753,106.907875 104.241753,95.846321 104.241753,84.102692 
	C112.796509,84.413811 121.679665,81.169586 128.612823,89.651436 
M118.435936,99.172615 
	C121.407486,98.324242 122.790253,96.097572 121.567207,93.477867 
	C119.637466,89.344444 115.629608,90.152527 111.834396,90.336418 
	C111.834396,93.583038 111.834396,96.613914 111.834396,100.004295 
	C114.068939,99.763077 115.866440,99.569031 118.435936,99.172615 
z"/>
<path fill="#F9F9F9" opacity="1.000000" stroke="none" 
	d="
M77.849083,112.017738 
	C77.849083,114.128876 77.849083,115.771935 77.849083,117.797638 
	C75.248184,117.797638 72.873940,117.797638 70.238037,117.797638 
	C70.238037,106.840012 70.238037,95.761520 70.238037,84.335144 
	C72.505783,84.335144 74.884117,84.335144 77.671326,84.335144 
	C77.671326,88.011200 77.671326,91.758041 77.671326,96.967133 
	C80.727745,93.683395 83.237862,91.584900 84.987808,88.976425 
	C88.191628,84.200775 92.393852,83.027344 98.375580,84.531952 
	C93.630127,89.719109 89.110420,94.659508 84.741486,99.435104 
	C89.576576,105.353928 94.359512,111.208893 99.363007,117.333855 
	C91.374718,119.063385 91.215744,118.930367 86.814339,113.423347 
	C84.368576,110.363220 81.652481,107.519157 77.849083,104.917595 
	C77.849083,107.128281 77.849083,109.338966 77.849083,112.017738 
z"/>
<path fill="#2D2F38" opacity="1.000000" stroke="none" 
	d="
M118.049942,99.273804 
	C115.866440,99.569031 114.068939,99.763077 111.834396,100.004295 
	C111.834396,96.613914 111.834396,93.583038 111.834396,90.336418 
	C115.629608,90.152527 119.637466,89.344444 121.567207,93.477867 
	C122.790253,96.097572 121.407486,98.324242 118.049942,99.273804 
z"/>
</svg>