<svg xmlns="http://www.w3.org/2000/svg" xml:space="preserve" viewBox="0 0 200 200"><path fill="#181A24" d="M1 178c0-51.02 0-102.042.327-153.677C4.911 11.486 13.36 4.603 25 1c50.354 0 100.708 0 151.69.333 4.938 2.345 9.557 3.886 13.486 6.475C196.23 11.796 198.567 18.518 201 25c0 50.688 0 101.375-.327 152.677-3.59 12.831-12.057 19.696-23.673 23.323-50.688 0-101.375 0-152.678-.327-8.32-2.517-14.663-6.651-18.84-13.605C3.752 184.187 2.48 181.03 1 178m54.758-94.091c.084-10.656.13-21.313.267-31.968.07-5.449 2.083-7.51 7.545-7.732 3.492-.142 6.996.023 10.492-.057 3.473-.08 5.229-2.298 5.315-5.426.093-3.367-1.64-5.752-5.358-5.874-3.162-.104-6.33-.03-9.494-.03-13.384.006-20.222 6.758-20.355 20.225-.08 7.995-.237 15.999.049 23.984.277 7.748-2.326 13.88-8.41 18.734-4.222 3.369-4.312 7.037-.162 10.328 6.262 4.965 8.764 11.226 8.602 19.157-.201 9.805-.242 19.672.636 29.423.769 8.53 7.909 14.236 16.421 14.481 4.161.12 8.328.043 12.493.013 3.727-.027 5.594-2.32 5.59-5.673-.003-3.355-1.88-5.632-5.605-5.661-3.498-.028-7.002.12-10.492-.048-5.135-.248-7.185-2.366-7.259-7.503-.095-6.662-.28-13.338.034-19.986.51-10.766-.745-20.933-7.575-28.228 2.607-6.377 4.84-11.84 7.266-18.16m69.126-40.75c4.415.341 8.825.752 13.245 1.006 5.768.33 7.788 2.254 7.846 7.978.068 6.83.262 13.674-.041 20.493-.466 10.452 1.003 20.237 8.5 28.286-5.766 6.937-8.685 14.46-8.485 23.199.194 8.493.082 16.995.028 25.493-.038 6.049-2.02 8.032-8.103 8.194-3.163.084-6.331.024-9.497.018-3.684-.008-5.71 2.076-5.756 5.497-.05 3.643 1.956 5.89 5.91 5.859 2.999-.024 5.998 0 8.998-.002 13.345-.01 20.178-6.799 20.302-20.295.075-8.164.206-16.335-.043-24.492-.225-7.391 2.383-13.212 8.08-17.883 4.736-3.882 4.747-7.113.039-10.983-5.682-4.67-8.24-10.474-8.138-17.868.138-9.98.294-20.018-.587-29.94-.807-9.092-7.998-14.737-17.105-14.886a340.193 340.193 0 0 0-10.497 0c-6.567.094-8.6 3.87-4.696 10.326m3.515 46.17c-6.72-8.158-15.602-4.914-24.157-5.225v33.747h7.381v-11.717c5.997-1.056 6.976 3.887 8.449 6.97 2.534 5.304 6.058 6.079 11.596 4.343l-7.684-12.99c6.088-4.712 6.94-7.24 4.415-15.129M77.85 111.55v-6.632c3.803 2.601 6.52 5.445 8.965 8.505 4.402 5.507 4.56 5.64 12.549 3.91L84.741 99.436l13.635-14.903c-5.982-1.505-10.184-.331-13.388 4.444-1.75 2.609-4.26 4.707-7.317 7.991V84.335h-7.433v33.463h7.611v-6.248z"/><path fill="#F8F8F8" d="M201 24.531c-2.433-6.013-4.77-12.735-10.824-16.723-3.93-2.589-8.548-4.13-13.017-6.475C184.926 1 192.853 1 201 1v23.531z"/><path fill="#F8F8F9" d="M24.531 1C13.36 4.602 4.911 11.486 1.327 23.854 1 16.405 1 8.811 1 1h23.531zM177.469 201c11.147-3.627 19.615-10.492 23.204-22.854C201 185.595 201 193.19 201 201h-23.531z"/><path fill="#F9F9F9" d="M1 178.469c1.48 2.562 2.752 5.718 4.482 8.599 4.177 6.954 10.52 11.088 18.372 13.605C16.407 201 8.814 201 1 201v-22.531z"/><path fill="#FAFAFA" d="M55.662 84.337c-2.33 5.89-4.563 11.354-7.17 17.73 6.83 7.296 8.084 17.463 7.575 28.229-.314 6.648-.129 13.324-.034 19.986.074 5.137 2.124 7.255 7.259 7.503 3.49.168 6.994.02 10.492.048 3.726.03 5.602 2.306 5.605 5.661.004 3.353-1.863 5.646-5.59 5.673-4.165.03-8.332.107-12.493-.013-8.512-.245-15.652-5.95-16.42-14.481-.88-9.751-.838-19.618-.637-29.423.162-7.931-2.34-14.192-8.602-19.157-4.15-3.29-4.06-6.96.162-10.328 6.084-4.854 8.687-10.986 8.41-18.734-.286-7.985-.128-15.99-.05-23.984.134-13.467 6.972-20.219 20.356-20.224 3.165-.002 6.332-.075 9.494.029 3.718.122 5.45 2.507 5.358 5.874-.086 3.128-1.842 5.346-5.315 5.426-3.496.08-7-.085-10.492.057-5.462.222-7.474 2.283-7.545 7.732-.138 10.655-.183 21.312-.363 32.396zM124.564 42.917c-3.583-6.215-1.55-9.991 5.016-10.086 3.498-.05 6.999-.057 10.497 0 9.107.15 16.298 5.795 17.105 14.888.88 9.921.725 19.958.587 29.94-.102 7.393 2.456 13.196 8.138 17.867 4.708 3.87 4.697 7.101-.039 10.983-5.697 4.67-8.305 10.492-8.08 17.883.249 8.157.118 16.328.043 24.492-.124 13.496-6.957 20.285-20.302 20.295-3 .002-6-.022-8.998.002-3.954.03-5.96-2.216-5.91-5.859.046-3.42 2.072-5.505 5.756-5.497 3.166.006 6.334.066 9.497-.018 6.084-.162 8.065-2.145 8.103-8.194.054-8.498.166-17-.028-25.493-.2-8.739 2.719-16.262 8.485-23.2-7.497-8.048-8.966-17.833-8.5-28.285.303-6.819.109-13.662.04-20.493-.057-5.724-2.077-7.648-7.845-7.978-4.42-.254-8.83-.665-13.565-1.247z"/><path fill="#F8F8F8" d="M128.613 89.651c2.31 7.566 1.459 10.093-4.629 14.804l7.684 12.99c-5.538 1.737-9.062.962-11.596-4.342-1.473-3.083-2.452-8.026-8.449-6.97v11.717h-7.381V84.103c8.555.31 17.438-2.933 24.37 5.548m-10.176 9.522c2.971-.849 4.354-3.075 3.131-5.695-1.93-4.134-5.937-3.325-9.733-3.142v9.668c2.235-.24 4.032-.435 6.602-.831z"/><path fill="#F9F9F9" d="M77.85 112.018v5.78h-7.612V84.335h7.433v12.632c3.057-3.284 5.567-5.382 7.317-7.99 3.204-4.776 7.406-5.95 13.388-4.445L84.74 99.435l14.622 17.899c-7.988 1.73-8.147 1.596-12.549-3.91-2.445-3.06-5.162-5.905-8.965-8.506v7.1z"/><path fill="#2D2F38" d="M118.05 99.274c-2.184.295-3.981.49-6.216.73v-9.668c3.796-.183 7.803-.992 9.733 3.142 1.223 2.62-.16 4.846-3.517 5.796z"/></svg>